<?xml version="1.0" encoding="UTF-8"?>
<!DOCTYPE svg PUBLIC "-//W3C//DTD SVG 1.1//EN" "http://www.w3.org/Graphics/SVG/1.1/DTD/svg11.dtd">
<svg xmlns="http://www.w3.org/2000/svg" version="1.1" width="800px" height="800px" style="shape-rendering:geometricPrecision; text-rendering:geometricPrecision; image-rendering:optimizeQuality; fill-rule:evenodd; clip-rule:evenodd" xmlns:xlink="http://www.w3.org/1999/xlink">
<g><path style="opacity:0.992" fill="#fefffe" d="M 799.5,397.5 C 799.5,398.833 799.5,400.167 799.5,401.5C 733.193,516.104 666.86,630.77 600.5,745.5C 466.5,746.833 332.5,746.833 198.5,745.5C 132.14,630.77 65.8065,516.104 -0.5,401.5C -0.5,400.167 -0.5,398.833 -0.5,397.5C 66.3117,283.223 132.645,168.557 198.5,53.5C 332.5,52.1667 466.5,52.1667 600.5,53.5C 666.355,168.557 732.688,283.223 799.5,397.5 Z M 253.5,189.5 C 301.168,189.333 348.834,189.5 396.5,190C 437.127,190.323 475.127,200.323 510.5,220C 552.596,247.632 578.096,286.465 587,336.5C 593.89,374.782 594.223,413.115 588,451.5C 568.769,533.731 517.936,584.231 435.5,603C 420.011,606.388 404.344,608.388 388.5,609C 343.501,609.5 298.501,609.667 253.5,609.5C 253.5,469.5 253.5,329.5 253.5,189.5 Z"/></g>
<g><path style="opacity:0.992" fill="#fefffe" d="M 336.5,270.5 C 357.169,270.333 377.836,270.5 398.5,271C 423.619,272.023 446.619,279.357 467.5,293C 486.62,308.718 498.453,328.885 503,353.5C 510.376,389.399 508.376,424.732 497,459.5C 481.299,495.453 454.132,517.286 415.5,525C 408.231,526.467 400.898,527.467 393.5,528C 374.503,528.5 355.503,528.667 336.5,528.5C 336.5,442.5 336.5,356.5 336.5,270.5 Z"/></g>
</svg>
